#!OML:ASF G:\ViconDB\ViconDB\414\test\team2\shane.ASF
:FULLY-SPECIFIED
:DEGREES
173
root 4.03857 16.5225 -8.7741 -7.32513 0.435479 -5.99702
lowerback 8.88668 5.1342 5.63055
upperback 2.66696 7.27656 -1.95721
thorax -1.21354 3.67485 -5.83311
lowerneck -8.57073 -9.9953 -12.8248
upperneck 6.30693 -14.0494 20.4736
head 5.77886 -6.27136 7.33742
rclavicle 2.90226e-014 -3.02153e-014
rhumerus -15.0114 24.4217 -92.9197
rradius 37.6543
rwrist 31.2055
rhand -32.8274 -16.0273
rfingers 7.12502
rthumb -6.04758 -45.921
lclavicle 2.90226e-014 -3.02153e-014
lhumerus -51.0595 -15.9882 86.7031
lradius 24.4181
lwrist -10.8278
lhand -34.6139 8.12394
lfingers 7.12502
lthumb -7.77208 37.9611
rfemur 33.9315 -10.219 21.8245
rtibia -9.54166e-015
rfoot -14.9822 3.14532
rtoes -17.6435
lfemur -28.4974 12.7005 -10.9964
ltibia 33.9422
lfoot -33.0828 -18.5098
ltoes -12.5459
174
root 4.05398 16.4567 -8.60315 -7.28249 0.45949 -6.06935
lowerback 8.86538 5.25968 5.61156
upperback 2.65609 7.44077 -1.971
thorax -1.19079 3.75773 -5.8455
lowerneck -8.24531 -10.1512 -13.1822
upperneck 5.95942 -14.2244 20.6651
head 5.69106 -6.38819 7.44821
rclavicle -9.05464e-014 4.77083e-015
rhumerus -15.1321 25.5726 -92.5844
rradius 38.2353
rwrist 30.3611
rhand -32.8835 -15.8897
rfingers 7.12502
rthumb -6.10178 -45.7818
lclavicle -9.05464e-014 4.77083e-015
lhumerus -50.9849 -14.697 85.8823
lradius 24.9424
lwrist -11.387
lhand -34.7098 7.8168
lfingers 7.12502
lthumb -7.86465 37.6505
rfemur 34.5675 -9.9353 21.8675
rtibia 2.54444e-014
rfoot -15.5414 2.9473
rtoes -18.035
lfemur -28.6696 12.5209 -11.0611
ltibia 34.2955
lfoot -32.6737 -17.2951
ltoes -12.1793
175
root 4.0688 16.3937 -8.43008 -7.08884 0.456429 -6.28585
lowerback 8.75585 5.41929 5.8128
upperback 2.59419 7.66499 -2.04992
thorax -1.12537 3.87282 -6.04268
lowerneck -8.18155 -10.3273 -13.2909
upperneck 5.89982 -14.4726 20.7943
head 5.72611 -6.51105 7.47682
rclavicle 2.50469e-014 -1.43125e-014
rhumerus -15.3419 26.614 -92.2432
rradius 38.772
rwrist 30.5058
rhand -32.9065 -15.729
rfingers 7.12502
rthumb -6.12395 -45.6205
lclavicle 2.50469e-014 -1.43125e-014
lhumerus -51.2705 -14.9009 86.0842
lradius 25.9158
lwrist -10.1229
lhand -34.6502 7.99441
lfingers 7.12502
lthumb -7.80712 37.8303
rfemur 35.0385 -9.65801 22.1253
rtibia 1.11319e-013
rfoot -16.0656 2.69079
rtoes -18.5515
lfemur -28.9556 12.3674 -11.0219
ltibia 34.7842
lfoot -32.1168 -16.0676
ltoes -11.7044
176
root 4.09267 16.3316 -8.24702 -6.91564 0.407767 -6.25409
lowerback 8.61168 5.53063 5.88327
upperback 2.53935 7.81003 -2.21271
thorax -1.04901 3.9493 -6.24518
lowerneck -8.07021 -10.424 -13.4386
upperneck 5.91368 -14.6191 20.8994
head 5.75796 -6.58738 7.52045
rclavicle 1.21159e-013 -1.43125e-014
rhumerus -15.7238 27.2478 -92.2139
rradius 39.4007
rwrist 30.3671
rhand -32.7418 -15.9161
rfingers 7.12502
rthumb -5.9649 -45.8121
lclavicle 1.21159e-013 -1.43125e-014
lhumerus -51.4318 -14.5785 85.9232
lradius 26.7379
lwrist -9.34534
lhand -34.5986 8.02931
lfingers 7.12502
lthumb -7.7574 37.867
rfemur 35.5674 -9.2675 22.0684
rtibia -4.13472e-014
rfoot -16.5164 2.57119
rtoes -18.9403
lfemur -29.0408 12.0982 -11.2209
ltibia 35.3681
lfoot -31.3327 -14.7322
ltoes -11.1366
177
root 4.12122 16.2648 -8.06406 -6.71382 0.404037 -6.3263
lowerback 8.52839 5.69766 6.05794
upperback 2.39075 8.04359 -2.3294
thorax -1.08153 4.06296 -6.47531
lowerneck -8.01319 -10.5856 -13.6289
upperneck 6.07795 -14.872 21.0025
head 5.86761 -6.70726 7.55314
rclavicle -1.71949e-013 2.38542e-014
rhumerus -16.3719 27.6956 -92.1068
rradius 39.9926
rwrist 30.2415
rhand -32.6101 -15.6207
rfingers 7.12502
rthumb -5.83783 -45.5203
lclavicle -1.71949e-013 2.38542e-014
lhumerus -51.4444 -14.2773 85.7774
lradius 27.0707
lwrist -9.2559
lhand -34.7759 7.85176
lfingers 7.12502
lthumb -7.92851 37.6831
rfemur 36.0607 -8.93105 22.1126
rtibia 4.13472e-014
rfoot -16.8263 2.47555
rtoes -19.364
lfemur -29.0604 11.8771 -11.3556
ltibia 36.0672
lfoot -30.6433 -13.7773
ltoes -11.1958
178
root 4.14616 16.2058 -7.86872 -6.4402 0.199632 -6.0542
lowerback 8.25649 5.90163 5.80133
upperback 2.28736 8.27722 -2.56263
thorax -1.00542 4.18171 -6.5624
lowerneck -8.12664 -10.6971 -13.7089
upperneck 6.33088 -15.0628 21.0822
head 6.01296 -6.78205 7.56118
rclavicle 6.36111e-015 7.95139e-015
rhumerus -17.1119 28.5058 -92.3412
rradius 40.6145
rwrist 29.5012
rhand -32.7446 -15.8067
rfingers 7.12502
rthumb -5.9676 -45.7026
lclavicle 6.36111e-015 7.95139e-015
lhumerus -51.175 -13.8171 85.3402
lradius 27.1915
lwrist -9.01025
lhand -34.7193 7.67303
lfingers 7.12502
lthumb -7.87382 37.5064
rfemur 36.5157 -8.34293 21.8291
rtibia 6.99722e-014
rfoot -17.1194 2.28842
rtoes -19.9448
lfemur -29.0508 11.837 -11.8206
ltibia 36.8769
lfoot -30.1293 -13.0085
ltoes -11.4278
